0
SECTION
2
HEADER
9
$INSUNITS
70
4
9
$ACADVER
1
AC1014
9
$HANDSEED
5
FFFF
0
ENDSEC
0
SECTION
2
TABLES
0
TABLE
2
VPORT
5
8
100
AcDbSymbolTable
0
ENDTAB
0
TABLE
2
LTYPE
5
5
100
AcDbSymbolTable
0
LTYPE
5
14
100
AcDbSymbolTableRecord
100
AcDbLinetypeTableRecord
2
BYBLOCK
70
0
0
LTYPE
5
15
100
AcDbSymbolTableRecord
100
AcDbLinetypeTableRecord
2
BYLAYER
70
0
0
ENDTAB
0
TABLE
2
LAYER
5
2
100
AcDbSymbolTable
70
2
0
LAYER
5
50
100
AcDbSymbolTableRecord
100
AcDbLayerTableRecord
2
0
70
0
6
CONTINUOUS
0
ENDTAB
0
TABLE
2
STYLE
5
3
100
AcDbSymbolTable
70
1
0
STYLE
5
11
100
AcDbSymbolTableRecord
100
AcDbTextStyleTableRecord
2
STANDARD
70
0
0
ENDTAB
0
TABLE
2
VIEW
5
6
100
AcDbSymbolTable
70
0
0
ENDTAB
0
TABLE
2
UCS
5
7
100
AcDbSymbolTable
70
0
0
ENDTAB
0
TABLE
2
APPID
5
9
100
AcDbSymbolTable
70
2
0
APPID
5
12
100
AcDbSymbolTableRecord
100
AcDbRegAppTableRecord
2
ACAD
70
0
0
ENDTAB
0
TABLE
2
DIMSTYLE
5
A
100
AcDbSymbolTable
70
1
0
ENDTAB
0
TABLE
2
BLOCK_RECORD
5
1
100
AcDbSymbolTable
70
1
0
BLOCK_RECORD
5
1F
100
AcDbSymbolTableRecord
100
AcDbBlockTableRecord
2
*MODEL_SPACE
0
BLOCK_RECORD
5
1B
100
AcDbSymbolTableRecord
100
AcDbBlockTableRecord
2
*PAPER_SPACE
0
ENDTAB
0
ENDSEC
0
SECTION
2
BLOCKS
0
BLOCK
5
20
100
AcDbEntity
100
AcDbBlockBegin
2
*MODEL_SPACE
0
ENDBLK
5
21
100
AcDbEntity
100
AcDbBlockEnd
0
BLOCK
5
1C
100
AcDbEntity
100
AcDbBlockBegin
2
*PAPER_SPACE
0
ENDBLK
5
1D
100
AcDbEntity
100
AcDbBlockEnd
0
ENDSEC
0
SECTION
2
ENTITIES
0
LINE
5
100
100
AcDbEntity
8
0
100
AcDbLine
10
-31.500000000000004
20
45
30
0
11
-31.500000000000004
21
-45
31
0
0
LINE
5
101
100
AcDbEntity
8
0
100
AcDbLine
10
31.500000000000004
20
45
30
0
11
31.500000000000004
21
-45
31
0
0
LINE
5
102
100
AcDbEntity
8
0
100
AcDbLine
10
-26.500000000000004
20
50
30
0
11
26.500000000000007
21
50
31
0
0
LINE
5
103
100
AcDbEntity
8
0
100
AcDbLine
10
-26.500000000000004
20
-50
30
0
11
26.500000000000004
21
-50
31
0
0
SPLINE
5
104
100
AcDbEntity
8
0
100
AcDbSpline
70
4
71
5
72
16
73
10
74
0
42
0.000000001
43
0.0000000001
44
0.0000000001
40
0
40
0
40
0
40
0
40
0
40
0
40
0.20000000000000001
40
0.40000000000000002
40
0.60000000000000009
40
0.80000000000000004
40
1
40
1
40
1
40
1
40
1
40
1
41
1
41
1
41
1
41
1
41
1
41
1
41
1
41
1
41
1
41
1
10
-31.500000000000004
20
45
30
0
10
-31.500000000000004
20
45.348672997633116
30
0
10
-31.446938482711026
20
46.019160280942621
30
0
10
-31.208299802003324
20
46.944371822098461
30
0
10
-30.611528819840416
20
48.025546350280749
30
0
10
-29.525546350280365
20
49.111528819840444
30
0
10
-28.444371822097899
20
49.708299802002998
30
0
10
-27.519160280942572
20
49.946938482710991
30
0
10
-26.848672997633116
20
50
30
0
10
-26.500000000000004
20
50
30
0
0
SPLINE
5
105
100
AcDbEntity
8
0
100
AcDbSpline
70
4
71
5
72
16
73
10
74
0
42
0.000000001
43
0.0000000001
44
0.0000000001
40
0
40
0
40
0
40
0
40
0
40
0
40
0.20000000000000001
40
0.40000000000000002
40
0.60000000000000009
40
0.80000000000000004
40
1
40
1
40
1
40
1
40
1
40
1
41
1
41
1
41
1
41
1
41
1
41
1
41
1
41
1
41
1
41
1
10
26.500000000000004
20
50
30
0
10
26.848672997633116
20
50
30
0
10
27.519160280942586
20
49.946938482710969
30
0
10
28.444371822098088
20
49.708299802003062
30
0
10
29.525546350280244
20
49.111528819839954
30
0
10
30.611528819839982
20
48.025546350279917
30
0
10
31.20829980200282
20
46.944371822097686
30
0
10
31.446938482710966
20
46.019160280942522
30
0
10
31.500000000000004
20
45.348672997633116
30
0
10
31.500000000000004
20
45
30
0
0
SPLINE
5
106
100
AcDbEntity
8
0
100
AcDbSpline
70
4
71
5
72
16
73
10
74
0
42
0.000000001
43
0.0000000001
44
0.0000000001
40
0
40
0
40
0
40
0
40
0
40
0
40
0.20000000000000001
40
0.40000000000000002
40
0.60000000000000009
40
0.80000000000000004
40
1
40
1
40
1
40
1
40
1
40
1
41
1
41
1
41
1
41
1
41
1
41
1
41
1
41
1
41
1
41
1
10
26.500000000000004
20
-50
30
0
10
26.848672997633116
20
-50
30
0
10
27.519160280942586
20
-49.946938482710969
30
0
10
28.444371822098088
20
-49.708299802003062
30
0
10
29.525546350280244
20
-49.111528819839954
30
0
10
30.611528819839982
20
-48.025546350279917
30
0
10
31.20829980200282
20
-46.944371822097686
30
0
10
31.446938482710966
20
-46.019160280942522
30
0
10
31.500000000000004
20
-45.348672997633116
30
0
10
31.500000000000004
20
-45
30
0
0
SPLINE
5
107
100
AcDbEntity
8
0
100
AcDbSpline
70
4
71
5
72
16
73
10
74
0
42
0.000000001
43
0.0000000001
44
0.0000000001
40
0
40
0
40
0
40
0
40
0
40
0
40
0.20000000000000001
40
0.40000000000000002
40
0.60000000000000009
40
0.80000000000000004
40
1
40
1
40
1
40
1
40
1
40
1
41
1
41
1
41
1
41
1
41
1
41
1
41
1
41
1
41
1
41
1
10
-31.500000000000004
20
-45
30
0
10
-31.500000000000004
20
-45.348672997633116
30
0
10
-31.446938482711026
20
-46.019160280942621
30
0
10
-31.208299802003324
20
-46.944371822098461
30
0
10
-30.611528819840416
20
-48.025546350280749
30
0
10
-29.525546350280365
20
-49.111528819840444
30
0
10
-28.444371822097899
20
-49.708299802002998
30
0
10
-27.519160280942572
20
-49.946938482710991
30
0
10
-26.848672997633116
20
-50
30
0
10
-26.500000000000004
20
-50
30
0
0
ENDSEC
0
SECTION
2
OBJECTS
0
DICTIONARY
5
C
100
AcDbDictionary
3
ACAD_GROUP
350
D
3
ACAD_MLINESTYLE
350
17
0
DICTIONARY
5
D
100
AcDbDictionary
0
DICTIONARY
5
1A
330
C
100
AcDbDictionary
0
DICTIONARY
5
17
100
AcDbDictionary
0
ENDSEC
0
EOF
